<svg width="960" height="720" viewBox="0 0 960 720" fill="none" xmlns="http://www.w3.org/2000/svg">
  <rect width="960" height="720" rx="48" fill="#F7FAF8"/>
  <rect x="32" y="32" width="896" height="656" rx="36" fill="url(#bg)"/>
  <rect x="188" y="126" width="270" height="410" rx="28" transform="rotate(-7 188 126)" fill="#FFF7E6" stroke="#E5D9B7" stroke-width="12"/>
  <rect x="508" y="152" width="270" height="410" rx="28" transform="rotate(6 508 152)" fill="#FFF6D6" stroke="#E7D9A4" stroke-width="12"/>
  <rect x="246" y="176" width="154" height="210" rx="24" transform="rotate(-7 246 176)" fill="#FACC15"/>
  <rect x="566" y="205" width="154" height="210" rx="24" transform="rotate(6 566 205)" fill="#FBBF24"/>
  <circle cx="323" cy="280" r="48" fill="#F97316"/>
  <circle cx="640" cy="306" r="48" fill="#FB923C"/>
  <path d="M284 428H404" stroke="#D97706" stroke-width="18" stroke-linecap="round"/>
  <path d="M602 454H722" stroke="#D97706" stroke-width="18" stroke-linecap="round"/>
  <rect x="96" y="84" width="220" height="54" rx="27" fill="white" fill-opacity="0.92"/>
  <text x="128" y="118" fill="#3F6212" font-family="Arial, sans-serif" font-size="28" font-weight="700" letter-spacing="3">VAN GOGH PROMO</text>
  <text x="96" y="624" fill="#92400E" font-family="Arial, sans-serif" font-size="30" font-weight="700">Sealed pair</text>
  <defs>
    <linearGradient id="bg" x1="124" y1="70" x2="816" y2="650" gradientUnits="userSpaceOnUse">
      <stop stop-color="#E1F5EA"/>
      <stop offset="1" stop-color="#FFF4D4"/>
    </linearGradient>
  </defs>
</svg>
