<svg width="960" height="720" viewBox="0 0 960 720" fill="none" xmlns="http://www.w3.org/2000/svg">
  <rect width="960" height="720" rx="48" fill="#F8FAFC"/>
  <rect x="32" y="32" width="896" height="656" rx="36" fill="url(#bg)"/>
  <rect x="186" y="170" width="220" height="352" rx="28" transform="rotate(-11 186 170)" fill="#FFFFFF" stroke="#CBD5E1" stroke-width="12"/>
  <rect x="370" y="132" width="220" height="352" rx="28" fill="#FFFFFF" stroke="#CBD5E1" stroke-width="12"/>
  <rect x="550" y="170" width="220" height="352" rx="28" transform="rotate(10 550 170)" fill="#FFFFFF" stroke="#CBD5E1" stroke-width="12"/>
  <rect x="230" y="220" width="140" height="182" rx="22" transform="rotate(-11 230 220)" fill="#D1FAE5"/>
  <rect x="410" y="182" width="140" height="182" rx="22" fill="#E2E8F0"/>
  <rect x="596" y="222" width="140" height="182" rx="22" transform="rotate(10 596 222)" fill="#DCFCE7"/>
  <path d="M276 432H350" stroke="#0F172A" stroke-width="16" stroke-linecap="round"/>
  <path d="M426 392H534" stroke="#94A3B8" stroke-width="16" stroke-linecap="round"/>
  <path d="M626 432H700" stroke="#166534" stroke-width="16" stroke-linecap="round"/>
  <text x="96" y="110" fill="#166534" font-family="Arial, sans-serif" font-size="28" font-weight="700" letter-spacing="3">ROOKIE STACK</text>
  <text x="96" y="620" fill="#0F172A" font-family="Arial, sans-serif" font-size="30" font-weight="700">Silver holo bundle</text>
  <defs>
    <linearGradient id="bg" x1="120" y1="100" x2="830" y2="620" gradientUnits="userSpaceOnUse">
      <stop stop-color="#ECFCCB"/>
      <stop offset="1" stop-color="#E2E8F0"/>
    </linearGradient>
  </defs>
</svg>
